<svg xmlns="http://www.w3.org/2000/svg" xmlns:xlink="http://www.w3.org/1999/xlink" width="500" zoomAndPan="magnify" viewBox="0 0 375 374.999991" height="500" preserveAspectRatio="xMidYMid meet" version="1.0"><defs><g/><clipPath id="05bfc1725a"><path d="M 89 31 L 277.921875 31 L 277.921875 209.796875 L 89 209.796875 Z M 89 31 " clip-rule="nonzero"/></clipPath><clipPath id="68c3aa42cc"><path d="M 84.144531 21.890625 L 155 21.890625 L 155 202 L 84.144531 202 Z M 84.144531 21.890625 " clip-rule="nonzero"/></clipPath><clipPath id="6f547f2bbe"><path d="M 70.171875 163 L 292 163 L 292 286.230469 L 70.171875 286.230469 Z M 70.171875 163 " clip-rule="nonzero"/></clipPath></defs><rect x="-37.5" width="450" fill="#ffffff" y="-37.499999" height="449.999989" fill-opacity="1"/><rect x="-37.5" width="450" fill="#ffffff" y="-37.499999" height="449.999989" fill-opacity="1"/><g clip-path="url(#05bfc1725a)"><path fill="#004aad" d="M 277.921875 198.578125 L 180.222656 198.578125 C 177.296875 205.214844 170.621094 209.800781 162.878906 209.71875 C 156.914062 209.640625 151.660156 206.757812 148.300781 202.371094 C 147.789062 201.699219 148.261719 200.753906 149.128906 200.753906 L 162.089844 200.792969 L 168.054688 191.113281 L 162.089844 181.394531 L 149.128906 181.355469 C 148.300781 181.355469 147.828125 180.40625 148.339844 179.734375 C 151.816406 175.230469 157.269531 172.347656 163.390625 172.425781 C 170.898438 172.546875 177.296875 177.089844 180.183594 183.527344 L 262.828125 183.527344 L 262.828125 101.59375 L 183.5 49.207031 L 104.09375 101.59375 L 104.09375 184.359375 L 89.003906 184.359375 L 89.003906 93.453125 L 183.5 31.113281 L 277.921875 93.453125 Z M 277.921875 198.578125 " fill-opacity="1" fill-rule="nonzero"/></g><path fill="#004aad" d="M 223.640625 166.777344 L 246.078125 144.335938 L 246.078125 166.777344 Z M 223.640625 166.777344 " fill-opacity="1" fill-rule="nonzero"/><path fill="#3d4145" d="M 260.300781 112.296875 L 191.558594 181.039062 L 202.1875 181.039062 L 202.1875 175.625 C 202.1875 175.152344 202.582031 174.757812 203.054688 174.757812 C 203.53125 174.757812 203.925781 175.152344 203.925781 175.625 L 203.925781 181.039062 L 209.851562 181.039062 L 209.851562 175.625 C 209.851562 175.152344 210.246094 174.757812 210.71875 174.757812 C 211.195312 174.757812 211.589844 175.152344 211.589844 175.625 L 211.589844 181.039062 L 217.515625 181.039062 L 217.515625 175.625 C 217.515625 175.152344 217.910156 174.757812 218.386719 174.757812 C 218.859375 174.757812 219.253906 175.152344 219.253906 175.625 L 219.253906 181.039062 L 225.179688 181.039062 L 225.179688 175.625 C 225.179688 175.152344 225.574219 174.757812 226.050781 174.757812 C 226.523438 174.757812 226.917969 175.152344 226.917969 175.625 L 226.917969 181.039062 L 232.84375 181.039062 L 232.84375 175.625 C 232.84375 175.152344 233.238281 174.757812 233.714844 174.757812 C 234.1875 174.757812 234.582031 175.152344 234.582031 175.625 L 234.582031 181.039062 L 240.507812 181.039062 L 240.507812 175.625 C 240.507812 175.152344 240.902344 174.757812 241.378906 174.757812 C 241.851562 174.757812 242.246094 175.152344 242.246094 175.625 L 242.246094 181.039062 L 248.171875 181.039062 L 248.171875 175.625 C 248.171875 175.152344 248.566406 174.757812 249.042969 174.757812 C 249.515625 174.757812 249.910156 175.152344 249.910156 175.625 L 249.910156 181.039062 L 260.539062 181.039062 L 260.539062 170.410156 L 255.125 170.410156 C 254.652344 170.410156 254.257812 170.015625 254.257812 169.542969 C 254.257812 169.070312 254.652344 168.671875 255.125 168.671875 L 260.539062 168.671875 L 260.539062 162.746094 L 255.125 162.746094 C 254.652344 162.746094 254.257812 162.351562 254.257812 161.878906 C 254.257812 161.40625 254.652344 161.007812 255.125 161.007812 L 260.539062 161.007812 L 260.539062 155.082031 L 255.125 155.082031 C 254.652344 155.082031 254.257812 154.6875 254.257812 154.214844 C 254.257812 153.742188 254.652344 153.34375 255.125 153.34375 L 260.539062 153.34375 L 260.539062 147.417969 L 255.125 147.417969 C 254.652344 147.417969 254.257812 147.023438 254.257812 146.550781 C 254.257812 146.074219 254.652344 145.679688 255.125 145.679688 L 260.539062 145.679688 L 260.539062 139.753906 L 255.125 139.753906 C 254.652344 139.753906 254.257812 139.359375 254.257812 138.886719 C 254.257812 138.410156 254.652344 138.015625 255.125 138.015625 L 260.539062 138.015625 L 260.539062 132.089844 L 255.125 132.089844 C 254.652344 132.089844 254.257812 131.695312 254.257812 131.222656 C 254.257812 130.746094 254.652344 130.351562 255.125 130.351562 L 260.539062 130.351562 L 260.539062 124.425781 L 255.125 124.425781 C 254.652344 124.425781 254.257812 124.03125 254.257812 123.558594 C 254.257812 123.082031 254.652344 122.6875 255.125 122.6875 L 260.539062 122.6875 L 260.539062 112.296875 Z M 246.710938 142.796875 C 247.34375 143.074219 247.777344 143.667969 247.777344 144.378906 L 247.777344 166.816406 C 247.777344 167.765625 247.027344 168.515625 246.078125 168.515625 L 223.640625 168.515625 C 222.929688 168.515625 222.335938 168.082031 222.058594 167.449219 C 221.980469 167.25 221.941406 167.015625 221.941406 166.777344 C 221.941406 166.34375 222.097656 165.90625 222.453125 165.550781 L 244.894531 143.113281 C 245.328125 142.679688 246.078125 142.519531 246.710938 142.796875 Z M 246.710938 142.796875 " fill-opacity="1" fill-rule="nonzero"/><g clip-path="url(#68c3aa42cc)"><path fill="#3d4145" d="M 131.390625 62.480469 L 116.300781 72.4375 L 116.300781 52.683594 L 131.390625 52.683594 Z M 151.304688 21.988281 C 148.578125 21.949219 145.890625 21.988281 143.164062 21.988281 C 142.453125 21.988281 141.941406 22.304688 141.625 22.894531 C 140.835938 24.359375 138.742188 26.886719 136.488281 26.886719 C 133.566406 26.964844 131.628906 23.210938 128.902344 23.09375 C 123.292969 22.894531 117.683594 23.132812 112.074219 23.09375 C 100.933594 23.605469 91.886719 27.796875 84.539062 49.367188 C 84.417969 49.800781 84.144531 50.433594 84.65625 50.667969 C 86.710938 51.578125 95.914062 35.933594 108.875 38.816406 C 116.261719 40.4375 116.378906 47.902344 116.300781 50.828125 L 131.433594 50.828125 C 131.433594 48.613281 131.433594 46.402344 131.433594 44.191406 C 131.472656 41.898438 132.183594 39.921875 133.960938 38.382812 C 135.183594 37.316406 137.082031 37.15625 138.542969 37.828125 C 139.964844 38.5 140.753906 39.726562 141.464844 40.988281 C 141.902344 41.78125 142.492188 42.136719 143.402344 42.097656 C 146.007812 42.054688 148.617188 42.097656 151.222656 42.097656 C 153.082031 42.097656 154.34375 40.832031 154.34375 38.976562 C 154.34375 34.351562 154.34375 29.730469 154.34375 25.148438 C 154.386719 23.332031 153.121094 22.027344 151.304688 21.988281 Z M 116.300781 97.445312 L 120.84375 97.445312 C 121.359375 97.445312 121.792969 97.878906 121.792969 98.390625 C 121.792969 98.90625 121.359375 99.339844 120.84375 99.339844 L 116.300781 99.339844 L 116.300781 103.410156 L 124.398438 103.410156 C 124.953125 103.410156 125.347656 103.84375 125.347656 104.359375 C 125.347656 104.871094 124.914062 105.304688 124.398438 105.304688 L 116.300781 105.304688 L 116.300781 109.375 L 120.84375 109.375 C 121.359375 109.375 121.792969 109.808594 121.792969 110.324219 C 121.792969 110.835938 121.359375 111.269531 120.84375 111.269531 L 116.300781 111.269531 L 116.300781 115.339844 L 124.398438 115.339844 C 124.953125 115.339844 125.347656 115.773438 125.347656 116.289062 C 125.347656 116.800781 124.914062 117.238281 124.398438 117.238281 L 116.300781 117.238281 L 116.300781 121.304688 L 120.84375 121.304688 C 121.359375 121.304688 121.792969 121.742188 121.792969 122.253906 C 121.792969 122.765625 121.359375 123.203125 120.84375 123.203125 L 116.300781 123.203125 L 116.300781 127.269531 L 124.398438 127.269531 C 124.953125 127.269531 125.347656 127.707031 125.347656 128.21875 C 125.347656 128.734375 124.914062 129.167969 124.398438 129.167969 L 116.300781 129.167969 L 116.300781 133.238281 L 120.84375 133.238281 C 121.359375 133.238281 121.792969 133.671875 121.792969 134.183594 C 121.792969 134.699219 121.359375 135.132812 120.84375 135.132812 L 116.300781 135.132812 L 116.300781 139.320312 L 124.398438 139.320312 C 124.953125 139.320312 125.347656 139.753906 125.347656 140.269531 C 125.347656 140.78125 124.914062 141.21875 124.398438 141.21875 L 116.300781 141.21875 L 116.300781 145.285156 L 120.84375 145.285156 C 121.359375 145.285156 121.792969 145.71875 121.792969 146.234375 C 121.792969 146.746094 121.359375 147.183594 120.84375 147.183594 L 116.300781 147.183594 L 116.300781 151.289062 L 124.398438 151.289062 C 124.953125 151.289062 125.347656 151.726562 125.347656 152.238281 C 125.347656 152.753906 124.914062 153.1875 124.398438 153.1875 L 116.300781 153.1875 L 116.300781 157.257812 L 120.84375 157.257812 C 121.359375 157.257812 121.792969 157.691406 121.792969 158.203125 C 121.792969 158.71875 121.359375 159.152344 120.84375 159.152344 L 116.300781 159.152344 L 116.300781 163.261719 L 124.398438 163.261719 C 124.953125 163.261719 125.347656 163.695312 125.347656 164.210938 C 125.347656 164.722656 124.914062 165.15625 124.398438 165.15625 L 116.300781 165.15625 L 116.300781 169.265625 L 120.84375 169.265625 C 121.359375 169.265625 121.792969 169.699219 121.792969 170.214844 C 121.792969 170.726562 121.359375 171.164062 120.84375 171.164062 L 116.300781 171.164062 L 116.300781 175.269531 L 124.398438 175.269531 C 124.953125 175.269531 125.347656 175.707031 125.347656 176.21875 C 125.347656 176.734375 124.914062 177.167969 124.398438 177.167969 L 116.300781 177.167969 L 116.300781 181.195312 L 120.84375 181.195312 C 121.359375 181.195312 121.792969 181.632812 121.792969 182.144531 C 121.792969 182.660156 121.359375 183.09375 120.84375 183.09375 L 116.300781 183.09375 L 116.300781 186.53125 L 89.003906 186.53125 L 89.003906 201.621094 L 89.753906 201.621094 L 89.753906 197.078125 C 89.753906 196.523438 90.1875 196.128906 90.703125 196.128906 C 91.214844 196.128906 91.648438 196.566406 91.648438 197.078125 L 91.648438 201.621094 L 95.757812 201.621094 L 95.757812 193.523438 C 95.757812 192.96875 96.191406 192.574219 96.707031 192.574219 C 97.21875 192.574219 97.652344 193.007812 97.652344 193.523438 L 97.652344 201.621094 L 101.722656 201.621094 L 101.722656 197.078125 C 101.722656 196.523438 102.15625 196.128906 102.671875 196.128906 C 103.183594 196.128906 103.621094 196.566406 103.621094 197.078125 L 103.621094 201.621094 L 107.726562 201.621094 L 107.726562 193.523438 C 107.726562 192.96875 108.164062 192.574219 108.675781 192.574219 C 109.191406 192.574219 109.625 193.007812 109.625 193.523438 L 109.625 201.621094 L 113.734375 201.621094 L 113.734375 197.078125 C 113.734375 196.523438 114.167969 196.128906 114.679688 196.128906 C 115.195312 196.128906 115.628906 196.566406 115.628906 197.078125 L 115.628906 201.621094 L 119.738281 201.621094 L 119.738281 193.523438 C 119.738281 192.96875 120.171875 192.574219 120.6875 192.574219 C 121.199219 192.574219 121.632812 193.007812 121.632812 193.523438 L 121.632812 201.621094 L 125.742188 201.621094 L 125.742188 197.078125 C 125.742188 196.523438 126.175781 196.128906 126.691406 196.128906 C 127.203125 196.128906 127.640625 196.566406 127.640625 197.078125 L 127.640625 201.621094 L 131.511719 201.621094 L 131.511719 87.292969 L 116.417969 97.246094 L 116.417969 97.445312 Z M 116.300781 97.445312 " fill-opacity="1" fill-rule="nonzero"/></g><path fill="#004aad" d="M 161.929688 121.027344 L 182.039062 121.027344 L 182.039062 141.136719 L 164.816406 141.136719 C 163.234375 141.136719 161.929688 139.875 161.929688 138.253906 Z M 184.882812 121.027344 L 184.882812 141.136719 L 202.109375 141.136719 C 203.6875 141.136719 204.992188 139.875 204.992188 138.253906 L 204.992188 121.027344 Z M 161.929688 100.921875 L 161.929688 118.144531 L 182.039062 118.144531 L 182.039062 98.035156 L 164.816406 98.035156 C 163.195312 98.078125 161.929688 99.339844 161.929688 100.921875 Z M 202.109375 98.078125 L 184.882812 98.078125 L 184.882812 118.183594 L 204.992188 118.183594 L 204.992188 100.960938 C 204.992188 99.339844 203.726562 98.078125 202.109375 98.078125 Z M 202.109375 98.078125 " fill-opacity="1" fill-rule="nonzero"/><path fill="#0a3c80" d="M 140.171875 194.480469 C 144.5625 198.621094 149.132812 202.648438 153.578125 206.769531 C 156.277344 209.34375 159.15625 211.71875 161.78125 214.363281 C 166.714844 211.773438 171.480469 208.894531 176.414062 206.339844 C 174.648438 202.019531 172.902344 197.703125 171.105469 193.402344 C 166.226562 181.308594 160.957031 169.359375 156.132812 157.230469 L 156.726562 158.003906 C 158.902344 161.890625 160.957031 165.867188 163.132812 169.773438 C 164.175781 171.535156 164.949219 173.445312 166.101562 175.117188 C 171.535156 175.171875 176.988281 175.136719 182.421875 175.136719 C 183.648438 171.265625 184.746094 167.378906 186.003906 163.527344 C 188.234375 166.15625 191.816406 167.21875 195.179688 166.914062 C 197.070312 166.75 199.355469 166.550781 200.527344 164.808594 C 201.371094 163.726562 201.191406 162.304688 201.082031 161.046875 C 200.976562 159.785156 201.390625 158.671875 201.839844 157.554688 C 203.0625 154.875 204.414062 152.210938 204.917969 149.277344 C 205.90625 149.1875 206.894531 149.132812 207.867188 148.882812 C 208.390625 148.753906 208.75 148.109375 208.496094 147.605469 C 207.722656 145.28125 205.691406 143.589844 205.113281 141.179688 C 204.878906 139.902344 205.382812 138.679688 205.671875 137.453125 C 206.105469 135.746094 206.03125 133.980469 206.015625 132.234375 C 207.058594 132.648438 208.03125 133.261719 209.128906 133.53125 C 216.992188 133.476562 224.855469 133.496094 232.71875 133.421875 C 225.882812 130.183594 219.113281 126.785156 212.242188 123.597656 C 211.917969 121.925781 211.808594 120.234375 211.449219 118.578125 C 210.351562 112.550781 207.722656 106.738281 203.550781 102.21875 C 200.398438 98.835938 196.566406 96.175781 192.300781 94.410156 C 186.113281 91.910156 179.273438 91.511719 172.832031 93.242188 C 166.371094 94.96875 160.59375 99.015625 156.636719 104.363281 C 152.675781 109.707031 150.519531 116.796875 150.195312 123.632812 L 148.234375 123.867188 C 148.089844 125.398438 148.070312 126.910156 148.015625 128.4375 L 153.847656 130.976562 C 153.289062 135.222656 154.871094 139.308594 156.113281 143.285156 C 157.140625 146.667969 156.636719 150.210938 156.691406 153.6875 C 152.046875 155.109375 147.53125 157.230469 143.894531 160.523438 C 141.863281 162.324219 140.261719 164.554688 138.714844 166.769531 C 139.019531 168.460938 138.964844 170.207031 139.089844 171.933594 C 139.558594 179.4375 139.59375 186.976562 140.171875 194.480469 Z M 202.703125 104.09375 C 204.953125 106.972656 206.734375 110.265625 207.453125 113.863281 C 208.011719 116.777344 208.316406 119.730469 208.585938 122.664062 C 207.722656 122.445312 206.859375 122.195312 205.960938 122.070312 C 205.566406 120.882812 205.78125 119.585938 205.617188 118.34375 C 205.078125 112.152344 203.566406 105.710938 199.429688 100.890625 C 200.761719 101.699219 201.730469 102.921875 202.703125 104.09375 Z M 154.820312 122.355469 C 158.417969 119.136719 162.71875 116.632812 167.414062 115.375 C 175.386719 113.199219 184.152344 114.761719 191.132812 119.027344 C 185.265625 118.234375 179.328125 117.820312 173.390625 118.128906 C 167.019531 118.523438 160.738281 119.945312 154.820312 122.355469 Z M 154.820312 122.355469 " fill-opacity="1" fill-rule="nonzero"/><path fill="#0a3c80" d="M 186.851562 224.621094 C 192.195312 219.492188 197.753906 214.617188 203.226562 209.648438 C 204.144531 208.804688 204.988281 207.867188 206.050781 207.203125 C 204.324219 202.488281 202.613281 197.773438 200.777344 193.09375 C 198.367188 187.175781 196.351562 181.109375 193.722656 175.28125 C 193.09375 173.875 192.320312 172.492188 191.152344 171.484375 C 189.65625 170.257812 188.199219 168.875 186.308594 168.296875 C 185.554688 170.671875 184.78125 173.046875 184.042969 175.441406 C 184.976562 175.296875 185.914062 175.476562 186.867188 175.460938 C 186.832031 191.851562 186.832031 208.226562 186.851562 224.621094 Z M 186.851562 224.621094 " fill-opacity="1" fill-rule="nonzero"/><path fill="#0a3c80" d="M 214.003906 199.898438 C 213.609375 196.53125 214.472656 192.859375 212.726562 189.765625 C 211.648438 187.589844 209.613281 186.113281 207.507812 185.03125 L 197.808594 180.210938 C 200.777344 189.0625 203.421875 198.023438 206.300781 206.898438 C 208.859375 204.558594 211.324219 202.109375 214.003906 199.898438 Z M 214.003906 199.898438 " fill-opacity="1" fill-rule="nonzero"/><path fill="#0a3c80" d="M 167.414062 177.65625 C 171.804688 187.515625 176.359375 197.324219 180.769531 207.183594 C 175.1875 210.152344 169.773438 213.464844 164.230469 216.488281 C 169.324219 221.347656 174.683594 225.917969 179.8125 230.738281 C 180.445312 230.542969 180.839844 229.964844 181.289062 229.515625 C 182.53125 228.238281 184.007812 227.160156 185.195312 225.84375 C 185.160156 209.777344 185.121094 193.707031 185.195312 177.636719 Z M 167.414062 177.65625 " fill-opacity="1" fill-rule="nonzero"/><g clip-path="url(#6f547f2bbe)"><path fill="#0a3c80" d="M 270.761719 202.777344 C 265.957031 198.347656 261.3125 193.777344 256.597656 189.261719 C 256.257812 188.882812 255.734375 188.632812 255.554688 188.144531 C 255.554688 179.941406 255.589844 171.714844 255.574219 163.492188 C 253.753906 166.121094 251.902344 168.730469 250.066406 171.339844 C 249.597656 171.933594 249.652344 172.6875 249.707031 173.390625 C 235.382812 186.472656 221.078125 199.554688 206.804688 212.636719 C 197.988281 220.679688 189.0625 228.582031 180.28125 236.660156 C 176.285156 232.84375 172.113281 229.230469 168.097656 225.429688 C 163.511719 221.203125 158.832031 217.0625 154.277344 212.800781 C 145.011719 204.199219 135.636719 195.722656 126.316406 187.15625 C 121.652344 182.980469 117.15625 178.625 112.40625 174.558594 C 112.082031 173.660156 112.476562 172.617188 112.082031 171.734375 C 110.15625 169 108.25 166.246094 106.359375 163.492188 C 106.449219 171.734375 106.324219 179.976562 106.429688 188.234375 C 101.390625 193.058594 96.335938 197.84375 91.332031 202.703125 C 89.660156 201.984375 88.183594 200.886719 86.5625 200.078125 C 81.148438 197.089844 75.714844 194.085938 70.171875 191.296875 C 70.710938 191.925781 71.304688 192.5 71.933594 193.039062 C 76.523438 197.070312 81.023438 201.210938 85.664062 205.167969 C 113.464844 228.941406 141.234375 252.746094 168.945312 276.609375 C 172.851562 279.902344 176.648438 283.339844 180.625 286.542969 C 183.898438 283.554688 187.40625 280.839844 190.753906 277.921875 C 214.128906 258.234375 237.453125 238.496094 260.738281 218.71875 C 267.269531 213.105469 273.890625 207.617188 280.316406 201.894531 C 284.203125 198.386719 288.179688 194.984375 291.886719 191.277344 C 284.671875 194.804688 277.742188 198.835938 270.761719 202.777344 Z M 96.066406 206.589844 C 99.464844 203.261719 102.941406 199.96875 106.339844 196.621094 C 106.414062 202.164062 106.285156 207.722656 106.375 213.265625 C 102.867188 211.160156 99.59375 208.695312 96.066406 206.589844 Z M 113.195312 212.492188 C 113.125 214.796875 113.304688 217.117188 113.105469 219.421875 L 112.277344 219.386719 C 112.207031 212.097656 112.386719 204.792969 112.296875 197.503906 C 117.535156 202.597656 123.023438 207.453125 128.292969 212.511719 C 123.253906 212.476562 118.21875 212.457031 113.195312 212.492188 Z M 249.742188 219.421875 L 248.84375 219.386719 C 248.84375 217.082031 248.894531 214.777344 248.824219 212.476562 C 243.859375 212.546875 238.875 212.386719 233.90625 212.582031 C 239.070312 207.4375 244.542969 202.597656 249.742188 197.503906 C 249.851562 204.792969 249.832031 212.117188 249.742188 219.421875 Z M 249.761719 189.785156 C 230.019531 207.582031 210.316406 225.414062 190.609375 243.28125 C 187.226562 246.378906 183.773438 249.402344 180.496094 252.621094 C 172.023438 244.597656 163.347656 236.804688 154.765625 228.90625 C 140.640625 215.894531 126.476562 202.902344 112.316406 189.945312 C 112.351562 186.796875 112.332031 183.648438 112.277344 180.5 C 128.527344 195.488281 144.902344 210.386719 161.171875 225.359375 L 180.570312 243.101562 C 203.730469 222.175781 226.796875 201.15625 249.777344 180.03125 C 249.867188 183.289062 249.921875 186.542969 249.761719 189.785156 Z M 255.535156 213.394531 C 255.714844 207.796875 255.609375 202.199219 255.625 196.605469 C 259.097656 199.914062 262.589844 203.207031 266.027344 206.554688 C 262.410156 208.605469 259.027344 211.089844 255.535156 213.394531 Z M 255.535156 213.394531 " fill-opacity="1" fill-rule="nonzero"/></g><path fill="#0a3c80" d="M 125.992188 181.417969 C 130.6875 185.753906 135.367188 190.144531 140.0625 194.480469 C 139.523438 193.402344 139.722656 192.175781 139.632812 191.007812 C 139.074219 183.324219 138.460938 175.65625 137.851562 167.972656 C 136.5 169.898438 135.367188 172.003906 133.765625 173.714844 C 130.667969 175.640625 127.035156 177.207031 125.164062 180.515625 C 125.34375 180.914062 125.722656 181.128906 125.992188 181.417969 Z M 125.992188 181.417969 " fill-opacity="1" fill-rule="nonzero"/><g fill="#3d4145" fill-opacity="1"><g transform="translate(69.464879, 323.694968)"><g><path d="M 12.359375 -14.859375 C 14.703125 -14.566406 16.488281 -13.769531 17.71875 -12.46875 C 18.945312 -11.164062 19.5625 -9.539062 19.5625 -7.59375 C 19.5625 -6.125 19.1875 -4.785156 18.4375 -3.578125 C 17.6875 -2.367188 16.554688 -1.410156 15.046875 -0.703125 C 13.546875 0.00390625 11.710938 0.359375 9.546875 0.359375 C 7.734375 0.359375 5.988281 0.101562 4.3125 -0.40625 C 2.644531 -0.925781 1.21875 -1.644531 0.03125 -2.5625 L 2.0625 -6.21875 C 2.976562 -5.445312 4.09375 -4.835938 5.40625 -4.390625 C 6.71875 -3.941406 8.070312 -3.71875 9.46875 -3.71875 C 11.132812 -3.71875 12.441406 -4.0625 13.390625 -4.75 C 14.347656 -5.4375 14.828125 -6.375 14.828125 -7.5625 C 14.828125 -8.738281 14.375 -9.65625 13.46875 -10.3125 C 12.5625 -10.976562 11.179688 -11.3125 9.328125 -11.3125 L 7.015625 -11.3125 L 7.015625 -14.53125 L 12.765625 -21.375 L 1.265625 -21.375 L 1.265625 -25.3125 L 18.515625 -25.3125 L 18.515625 -22.15625 Z M 12.359375 -14.859375 "/></g></g></g><g fill="#3d4145" fill-opacity="1"><g transform="translate(88.443929, 323.694968)"><g><path d="M 3.40625 -25.3125 L 14.46875 -25.3125 C 17.164062 -25.3125 19.5625 -24.785156 21.65625 -23.734375 C 23.75 -22.679688 25.375 -21.195312 26.53125 -19.28125 C 27.695312 -17.375 28.28125 -15.164062 28.28125 -12.65625 C 28.28125 -10.144531 27.695312 -7.929688 26.53125 -6.015625 C 25.375 -4.097656 23.75 -2.613281 21.65625 -1.5625 C 19.5625 -0.519531 17.164062 0 14.46875 0 L 3.40625 0 Z M 14.25 -3.984375 C 16.101562 -3.984375 17.734375 -4.335938 19.140625 -5.046875 C 20.554688 -5.753906 21.640625 -6.765625 22.390625 -8.078125 C 23.148438 -9.390625 23.53125 -10.914062 23.53125 -12.65625 C 23.53125 -14.394531 23.148438 -15.921875 22.390625 -17.234375 C 21.640625 -18.546875 20.554688 -19.554688 19.140625 -20.265625 C 17.734375 -20.972656 16.101562 -21.328125 14.25 -21.328125 L 8.09375 -21.328125 L 8.09375 -3.984375 Z M 14.25 -3.984375 "/></g></g></g><g fill="#3d4145" fill-opacity="1"><g transform="translate(116.244156, 323.694968)"><g/></g></g><g fill="#3d4145" fill-opacity="1"><g transform="translate(124.160567, 323.694968)"><g><path d="M 20.6875 -12.9375 L 25.125 -12.9375 L 25.125 -2.859375 C 23.820312 -1.816406 22.300781 -1.019531 20.5625 -0.46875 C 18.832031 0.0820312 17.050781 0.359375 15.21875 0.359375 C 12.644531 0.359375 10.320312 -0.195312 8.25 -1.3125 C 6.175781 -2.4375 4.546875 -3.988281 3.359375 -5.96875 C 2.179688 -7.945312 1.59375 -10.175781 1.59375 -12.65625 C 1.59375 -15.132812 2.179688 -17.363281 3.359375 -19.34375 C 4.546875 -21.320312 6.179688 -22.867188 8.265625 -23.984375 C 10.347656 -25.109375 12.691406 -25.671875 15.296875 -25.671875 C 17.410156 -25.671875 19.335938 -25.320312 21.078125 -24.625 C 22.816406 -23.925781 24.273438 -22.898438 25.453125 -21.546875 L 22.484375 -18.65625 C 20.554688 -20.582031 18.234375 -21.546875 15.515625 -21.546875 C 13.722656 -21.546875 12.132812 -21.171875 10.75 -20.421875 C 9.363281 -19.679688 8.28125 -18.632812 7.5 -17.28125 C 6.71875 -15.9375 6.328125 -14.394531 6.328125 -12.65625 C 6.328125 -10.96875 6.71875 -9.445312 7.5 -8.09375 C 8.28125 -6.75 9.363281 -5.691406 10.75 -4.921875 C 12.132812 -4.148438 13.707031 -3.765625 15.46875 -3.765625 C 17.445312 -3.765625 19.1875 -4.195312 20.6875 -5.0625 Z M 20.6875 -12.9375 "/></g></g></g><g fill="#3d4145" fill-opacity="1"><g transform="translate(150.008571, 323.694968)"><g><path d="M 22.375 -3.9375 L 22.375 0 L 3.40625 0 L 3.40625 -25.3125 L 21.875 -25.3125 L 21.875 -21.375 L 8.09375 -21.375 L 8.09375 -14.78125 L 20.3125 -14.78125 L 20.3125 -10.921875 L 8.09375 -10.921875 L 8.09375 -3.9375 Z M 22.375 -3.9375 "/></g></g></g><g fill="#3d4145" fill-opacity="1"><g transform="translate(172.169034, 323.694968)"><g><path d="M 25.890625 -25.3125 L 25.890625 0 L 22.015625 0 L 8.0625 -17.140625 L 8.0625 0 L 3.40625 0 L 3.40625 -25.3125 L 7.265625 -25.3125 L 21.21875 -8.171875 L 21.21875 -25.3125 Z M 25.890625 -25.3125 "/></g></g></g><g fill="#3d4145" fill-opacity="1"><g transform="translate(199.390826, 323.694968)"><g><path d="M 22.375 -3.9375 L 22.375 0 L 3.40625 0 L 3.40625 -25.3125 L 21.875 -25.3125 L 21.875 -21.375 L 8.09375 -21.375 L 8.09375 -14.78125 L 20.3125 -14.78125 L 20.3125 -10.921875 L 8.09375 -10.921875 L 8.09375 -3.9375 Z M 22.375 -3.9375 "/></g></g></g><g fill="#3d4145" fill-opacity="1"><g transform="translate(221.551282, 323.694968)"><g><path d="M 19.953125 0 L 14.78125 -7.40625 C 14.570312 -7.382812 14.25 -7.375 13.8125 -7.375 L 8.09375 -7.375 L 8.09375 0 L 3.40625 0 L 3.40625 -25.3125 L 13.8125 -25.3125 C 16.007812 -25.3125 17.921875 -24.945312 19.546875 -24.21875 C 21.171875 -23.5 22.414062 -22.460938 23.28125 -21.109375 C 24.15625 -19.765625 24.59375 -18.164062 24.59375 -16.3125 C 24.59375 -14.40625 24.125 -12.765625 23.1875 -11.390625 C 22.257812 -10.015625 20.929688 -8.988281 19.203125 -8.3125 L 25.015625 0 Z M 19.84375 -16.3125 C 19.84375 -17.925781 19.3125 -19.164062 18.25 -20.03125 C 17.195312 -20.894531 15.644531 -21.328125 13.59375 -21.328125 L 8.09375 -21.328125 L 8.09375 -11.25 L 13.59375 -11.25 C 15.644531 -11.25 17.195312 -11.6875 18.25 -12.5625 C 19.3125 -13.445312 19.84375 -14.695312 19.84375 -16.3125 Z M 19.84375 -16.3125 "/></g></g></g><g fill="#3d4145" fill-opacity="1"><g transform="translate(245.917032, 323.694968)"><g><path d="M 19.8125 -5.859375 L 7.15625 -5.859375 L 4.671875 0 L -0.1875 0 L 11.203125 -25.3125 L 15.84375 -25.3125 L 27.265625 0 L 22.34375 0 Z M 18.265625 -9.546875 L 13.484375 -20.609375 L 8.75 -9.546875 Z M 18.265625 -9.546875 "/></g></g></g><g fill="#3d4145" fill-opacity="1"><g transform="translate(270.933537, 323.694968)"><g><path d="M 3.40625 -25.3125 L 8.09375 -25.3125 L 8.09375 -3.984375 L 21.328125 -3.984375 L 21.328125 0 L 3.40625 0 Z M 3.40625 -25.3125 "/></g></g></g><g fill="#3d4145" fill-opacity="1"><g transform="translate(95.978556, 366.302099)"><g><path d="M 11.25 0.359375 C 9.289062 0.359375 7.398438 0.0820312 5.578125 -0.46875 C 3.765625 -1.019531 2.328125 -1.753906 1.265625 -2.671875 L 2.890625 -6.328125 C 3.929688 -5.503906 5.203125 -4.832031 6.703125 -4.3125 C 8.210938 -3.800781 9.726562 -3.546875 11.25 -3.546875 C 13.125 -3.546875 14.523438 -3.84375 15.453125 -4.4375 C 16.378906 -5.039062 16.84375 -5.835938 16.84375 -6.828125 C 16.84375 -7.554688 16.582031 -8.15625 16.0625 -8.625 C 15.550781 -9.09375 14.894531 -9.457031 14.09375 -9.71875 C 13.300781 -9.988281 12.21875 -10.289062 10.84375 -10.625 C 8.914062 -11.082031 7.351562 -11.539062 6.15625 -12 C 4.96875 -12.457031 3.945312 -13.175781 3.09375 -14.15625 C 2.238281 -15.132812 1.8125 -16.453125 1.8125 -18.109375 C 1.8125 -19.515625 2.1875 -20.785156 2.9375 -21.921875 C 3.695312 -23.066406 4.84375 -23.976562 6.375 -24.65625 C 7.90625 -25.332031 9.78125 -25.671875 12 -25.671875 C 13.539062 -25.671875 15.054688 -25.476562 16.546875 -25.09375 C 18.046875 -24.707031 19.335938 -24.148438 20.421875 -23.421875 L 18.953125 -19.78125 C 17.835938 -20.425781 16.675781 -20.914062 15.46875 -21.25 C 14.269531 -21.59375 13.101562 -21.765625 11.96875 -21.765625 C 10.113281 -21.765625 8.734375 -21.453125 7.828125 -20.828125 C 6.921875 -20.203125 6.46875 -19.367188 6.46875 -18.328125 C 6.46875 -17.609375 6.726562 -17.019531 7.25 -16.5625 C 7.769531 -16.101562 8.425781 -15.738281 9.21875 -15.46875 C 10.007812 -15.207031 11.09375 -14.910156 12.46875 -14.578125 C 14.351562 -14.140625 15.894531 -13.6875 17.09375 -13.21875 C 18.300781 -12.75 19.332031 -12.03125 20.1875 -11.0625 C 21.050781 -10.101562 21.484375 -8.800781 21.484375 -7.15625 C 21.484375 -5.757812 21.101562 -4.492188 20.34375 -3.359375 C 19.582031 -2.222656 18.429688 -1.316406 16.890625 -0.640625 C 15.347656 0.0234375 13.46875 0.359375 11.25 0.359375 Z M 11.25 0.359375 "/></g></g></g><g fill="#3d4145" fill-opacity="1"><g transform="translate(116.656772, 366.302099)"><g><path d="M 22.375 -3.9375 L 22.375 0 L 3.40625 0 L 3.40625 -25.3125 L 21.875 -25.3125 L 21.875 -21.375 L 8.09375 -21.375 L 8.09375 -14.78125 L 20.3125 -14.78125 L 20.3125 -10.921875 L 8.09375 -10.921875 L 8.09375 -3.9375 Z M 22.375 -3.9375 "/></g></g></g><g fill="#3d4145" fill-opacity="1"><g transform="translate(138.817235, 366.302099)"><g><path d="M 19.953125 0 L 14.78125 -7.40625 C 14.570312 -7.382812 14.25 -7.375 13.8125 -7.375 L 8.09375 -7.375 L 8.09375 0 L 3.40625 0 L 3.40625 -25.3125 L 13.8125 -25.3125 C 16.007812 -25.3125 17.921875 -24.945312 19.546875 -24.21875 C 21.171875 -23.5 22.414062 -22.460938 23.28125 -21.109375 C 24.15625 -19.765625 24.59375 -18.164062 24.59375 -16.3125 C 24.59375 -14.40625 24.125 -12.765625 23.1875 -11.390625 C 22.257812 -10.015625 20.929688 -8.988281 19.203125 -8.3125 L 25.015625 0 Z M 19.84375 -16.3125 C 19.84375 -17.925781 19.3125 -19.164062 18.25 -20.03125 C 17.195312 -20.894531 15.644531 -21.328125 13.59375 -21.328125 L 8.09375 -21.328125 L 8.09375 -11.25 L 13.59375 -11.25 C 15.644531 -11.25 17.195312 -11.6875 18.25 -12.5625 C 19.3125 -13.445312 19.84375 -14.695312 19.84375 -16.3125 Z M 19.84375 -16.3125 "/></g></g></g><g fill="#3d4145" fill-opacity="1"><g transform="translate(163.182992, 366.302099)"><g><path d="M 26.53125 -25.3125 L 15.515625 0 L 10.890625 0 L -0.1875 -25.3125 L 4.921875 -25.3125 L 13.34375 -5.78125 L 21.84375 -25.3125 Z M 26.53125 -25.3125 "/></g></g></g><g fill="#3d4145" fill-opacity="1"><g transform="translate(187.476443, 366.302099)"><g><path d="M 3.40625 -25.3125 L 8.09375 -25.3125 L 8.09375 0 L 3.40625 0 Z M 3.40625 -25.3125 "/></g></g></g><g fill="#3d4145" fill-opacity="1"><g transform="translate(196.947407, 366.302099)"><g><path d="M 15.109375 0.359375 C 12.554688 0.359375 10.25 -0.195312 8.1875 -1.3125 C 6.125 -2.4375 4.507812 -3.988281 3.34375 -5.96875 C 2.175781 -7.945312 1.59375 -10.175781 1.59375 -12.65625 C 1.59375 -15.132812 2.179688 -17.363281 3.359375 -19.34375 C 4.546875 -21.320312 6.164062 -22.867188 8.21875 -23.984375 C 10.28125 -25.109375 12.59375 -25.671875 15.15625 -25.671875 C 17.226562 -25.671875 19.117188 -25.304688 20.828125 -24.578125 C 22.535156 -23.859375 23.984375 -22.8125 25.171875 -21.4375 L 22.125 -18.578125 C 20.289062 -20.554688 18.035156 -21.546875 15.359375 -21.546875 C 13.628906 -21.546875 12.078125 -21.164062 10.703125 -20.40625 C 9.328125 -19.644531 8.253906 -18.585938 7.484375 -17.234375 C 6.710938 -15.890625 6.328125 -14.363281 6.328125 -12.65625 C 6.328125 -10.945312 6.710938 -9.414062 7.484375 -8.0625 C 8.253906 -6.707031 9.328125 -5.648438 10.703125 -4.890625 C 12.078125 -4.140625 13.628906 -3.765625 15.359375 -3.765625 C 18.035156 -3.765625 20.289062 -4.765625 22.125 -6.765625 L 25.171875 -3.875 C 23.984375 -2.5 22.523438 -1.445312 20.796875 -0.71875 C 19.078125 0 17.179688 0.359375 15.109375 0.359375 Z M 15.109375 0.359375 "/></g></g></g><g fill="#3d4145" fill-opacity="1"><g transform="translate(221.168552, 366.302099)"><g><path d="M 22.375 -3.9375 L 22.375 0 L 3.40625 0 L 3.40625 -25.3125 L 21.875 -25.3125 L 21.875 -21.375 L 8.09375 -21.375 L 8.09375 -14.78125 L 20.3125 -14.78125 L 20.3125 -10.921875 L 8.09375 -10.921875 L 8.09375 -3.9375 Z M 22.375 -3.9375 "/></g></g></g><g fill="#3d4145" fill-opacity="1"><g transform="translate(243.329021, 366.302099)"><g><path d="M 11.25 0.359375 C 9.289062 0.359375 7.398438 0.0820312 5.578125 -0.46875 C 3.765625 -1.019531 2.328125 -1.753906 1.265625 -2.671875 L 2.890625 -6.328125 C 3.929688 -5.503906 5.203125 -4.832031 6.703125 -4.3125 C 8.210938 -3.800781 9.726562 -3.546875 11.25 -3.546875 C 13.125 -3.546875 14.523438 -3.84375 15.453125 -4.4375 C 16.378906 -5.039062 16.84375 -5.835938 16.84375 -6.828125 C 16.84375 -7.554688 16.582031 -8.15625 16.0625 -8.625 C 15.550781 -9.09375 14.894531 -9.457031 14.09375 -9.71875 C 13.300781 -9.988281 12.21875 -10.289062 10.84375 -10.625 C 8.914062 -11.082031 7.351562 -11.539062 6.15625 -12 C 4.96875 -12.457031 3.945312 -13.175781 3.09375 -14.15625 C 2.238281 -15.132812 1.8125 -16.453125 1.8125 -18.109375 C 1.8125 -19.515625 2.1875 -20.785156 2.9375 -21.921875 C 3.695312 -23.066406 4.84375 -23.976562 6.375 -24.65625 C 7.90625 -25.332031 9.78125 -25.671875 12 -25.671875 C 13.539062 -25.671875 15.054688 -25.476562 16.546875 -25.09375 C 18.046875 -24.707031 19.335938 -24.148438 20.421875 -23.421875 L 18.953125 -19.78125 C 17.835938 -20.425781 16.675781 -20.914062 15.46875 -21.25 C 14.269531 -21.59375 13.101562 -21.765625 11.96875 -21.765625 C 10.113281 -21.765625 8.734375 -21.453125 7.828125 -20.828125 C 6.921875 -20.203125 6.46875 -19.367188 6.46875 -18.328125 C 6.46875 -17.609375 6.726562 -17.019531 7.25 -16.5625 C 7.769531 -16.101562 8.425781 -15.738281 9.21875 -15.46875 C 10.007812 -15.207031 11.09375 -14.910156 12.46875 -14.578125 C 14.351562 -14.140625 15.894531 -13.6875 17.09375 -13.21875 C 18.300781 -12.75 19.332031 -12.03125 20.1875 -11.0625 C 21.050781 -10.101562 21.484375 -8.800781 21.484375 -7.15625 C 21.484375 -5.757812 21.101562 -4.492188 20.34375 -3.359375 C 19.582031 -2.222656 18.429688 -1.316406 16.890625 -0.640625 C 15.347656 0.0234375 13.46875 0.359375 11.25 0.359375 Z M 11.25 0.359375 "/></g></g></g></svg>