<svg xmlns="http://www.w3.org/2000/svg" xmlns:xlink="http://www.w3.org/1999/xlink" width="500" zoomAndPan="magnify" viewBox="0 0 375 374.999991" height="500" preserveAspectRatio="xMidYMid meet" version="1.0"><defs><clipPath id="169850e7a3"><path d="M 134 99 L 227.382812 99 L 227.382812 187.253906 L 134 187.253906 Z M 134 99 " clip-rule="nonzero"/></clipPath><clipPath id="e296e07d31"><path d="M 132 94.667969 L 167 94.667969 L 167 184 L 132 184 Z M 132 94.667969 " clip-rule="nonzero"/></clipPath><clipPath id="bf4270d929"><path d="M 125.019531 164 L 234.484375 164 L 234.484375 224.917969 L 125.019531 224.917969 Z M 125.019531 164 " clip-rule="nonzero"/></clipPath></defs><rect x="-37.5" width="450" fill="#ffffff" y="-37.499999" height="449.999989" fill-opacity="1"/><rect x="-37.5" width="450" fill="#ffffff" y="-37.499999" height="449.999989" fill-opacity="1"/><g clip-path="url(#169850e7a3)"><path fill="#004aad" d="M 227.382812 181.730469 L 179.246094 181.730469 C 177.804688 185 174.515625 187.257812 170.699219 187.21875 C 167.761719 187.179688 165.171875 185.757812 163.515625 183.597656 C 163.261719 183.265625 163.496094 182.800781 163.925781 182.800781 L 170.308594 182.820312 L 173.25 178.050781 L 170.308594 173.261719 L 163.925781 173.242188 C 163.515625 173.242188 163.28125 172.773438 163.535156 172.441406 C 165.25 170.222656 167.933594 168.804688 170.953125 168.84375 C 174.652344 168.898438 177.804688 171.140625 179.226562 174.3125 L 219.949219 174.3125 L 219.949219 133.9375 L 180.859375 108.128906 L 141.734375 133.9375 L 141.734375 174.722656 L 134.296875 174.722656 L 134.296875 129.929688 L 180.859375 99.210938 L 227.382812 129.929688 Z M 227.382812 181.730469 " fill-opacity="1" fill-rule="nonzero"/></g><path fill="#004aad" d="M 200.636719 166.058594 L 211.695312 155 L 211.695312 166.058594 Z M 200.636719 166.058594 " fill-opacity="1" fill-rule="nonzero"/><path fill="#3d4145" d="M 218.703125 139.214844 L 184.832031 173.085938 L 190.066406 173.085938 L 190.066406 170.417969 C 190.066406 170.183594 190.261719 169.992188 190.496094 169.992188 C 190.730469 169.992188 190.925781 170.183594 190.925781 170.417969 L 190.925781 173.085938 L 193.84375 173.085938 L 193.84375 170.417969 C 193.84375 170.183594 194.039062 169.992188 194.273438 169.992188 C 194.507812 169.992188 194.699219 170.183594 194.699219 170.417969 L 194.699219 173.085938 L 197.621094 173.085938 L 197.621094 170.417969 C 197.621094 170.183594 197.816406 169.992188 198.050781 169.992188 C 198.28125 169.992188 198.476562 170.183594 198.476562 170.417969 L 198.476562 173.085938 L 201.398438 173.085938 L 201.398438 170.417969 C 201.398438 170.183594 201.59375 169.992188 201.824219 169.992188 C 202.058594 169.992188 202.253906 170.183594 202.253906 170.417969 L 202.253906 173.085938 L 205.175781 173.085938 L 205.175781 170.417969 C 205.175781 170.183594 205.367188 169.992188 205.601562 169.992188 C 205.835938 169.992188 206.03125 170.183594 206.03125 170.417969 L 206.03125 173.085938 L 208.949219 173.085938 L 208.949219 170.417969 C 208.949219 170.183594 209.144531 169.992188 209.378906 169.992188 C 209.613281 169.992188 209.808594 170.183594 209.808594 170.417969 L 209.808594 173.085938 L 212.726562 173.085938 L 212.726562 170.417969 C 212.726562 170.183594 212.921875 169.992188 213.15625 169.992188 C 213.386719 169.992188 213.582031 170.183594 213.582031 170.417969 L 213.582031 173.085938 L 218.820312 173.085938 L 218.820312 167.847656 L 216.152344 167.847656 C 215.917969 167.847656 215.722656 167.65625 215.722656 167.421875 C 215.722656 167.1875 215.917969 166.992188 216.152344 166.992188 L 218.820312 166.992188 L 218.820312 164.074219 L 216.152344 164.074219 C 215.917969 164.074219 215.722656 163.878906 215.722656 163.644531 C 215.722656 163.410156 215.917969 163.214844 216.152344 163.214844 L 218.820312 163.214844 L 218.820312 160.296875 L 216.152344 160.296875 C 215.917969 160.296875 215.722656 160.101562 215.722656 159.867188 C 215.722656 159.632812 215.917969 159.441406 216.152344 159.441406 L 218.820312 159.441406 L 218.820312 156.519531 L 216.152344 156.519531 C 215.917969 156.519531 215.722656 156.324219 215.722656 156.089844 C 215.722656 155.859375 215.917969 155.664062 216.152344 155.664062 L 218.820312 155.664062 L 218.820312 152.742188 L 216.152344 152.742188 C 215.917969 152.742188 215.722656 152.546875 215.722656 152.316406 C 215.722656 152.082031 215.917969 151.886719 216.152344 151.886719 L 218.820312 151.886719 L 218.820312 148.96875 L 216.152344 148.96875 C 215.917969 148.96875 215.722656 148.773438 215.722656 148.539062 C 215.722656 148.304688 215.917969 148.109375 216.152344 148.109375 L 218.820312 148.109375 L 218.820312 145.191406 L 216.152344 145.191406 C 215.917969 145.191406 215.722656 144.996094 215.722656 144.761719 C 215.722656 144.527344 215.917969 144.335938 216.152344 144.335938 L 218.820312 144.335938 L 218.820312 139.214844 Z M 212.007812 154.242188 C 212.316406 154.378906 212.53125 154.671875 212.53125 155.019531 L 212.53125 166.078125 C 212.53125 166.546875 212.164062 166.914062 211.695312 166.914062 L 200.636719 166.914062 C 200.289062 166.914062 199.996094 166.699219 199.859375 166.390625 C 199.820312 166.292969 199.800781 166.175781 199.800781 166.058594 C 199.800781 165.84375 199.878906 165.628906 200.054688 165.453125 L 211.109375 154.398438 C 211.324219 154.183594 211.695312 154.105469 212.007812 154.242188 Z M 212.007812 154.242188 " fill-opacity="1" fill-rule="nonzero"/><g clip-path="url(#e296e07d31)"><path fill="#3d4145" d="M 155.183594 114.667969 L 147.75 119.574219 L 147.75 109.839844 L 155.183594 109.839844 Z M 164.996094 94.714844 C 163.652344 94.695312 162.328125 94.714844 160.984375 94.714844 C 160.636719 94.714844 160.382812 94.871094 160.226562 95.164062 C 159.835938 95.882812 158.804688 97.128906 157.695312 97.128906 C 156.253906 97.167969 155.300781 95.320312 153.957031 95.261719 C 151.195312 95.164062 148.429688 95.28125 145.664062 95.261719 C 140.175781 95.511719 135.71875 97.578125 132.097656 108.203125 C 132.039062 108.417969 131.902344 108.730469 132.15625 108.847656 C 133.167969 109.296875 137.703125 101.585938 144.089844 103.007812 C 147.730469 103.804688 147.789062 107.484375 147.75 108.925781 L 155.203125 108.925781 C 155.203125 107.835938 155.203125 106.746094 155.203125 105.65625 C 155.222656 104.527344 155.574219 103.550781 156.449219 102.792969 C 157.054688 102.269531 157.988281 102.191406 158.707031 102.519531 C 159.410156 102.851562 159.796875 103.457031 160.148438 104.078125 C 160.363281 104.46875 160.65625 104.644531 161.101562 104.625 C 162.386719 104.605469 163.671875 104.625 164.957031 104.625 C 165.871094 104.625 166.496094 104 166.496094 103.085938 C 166.496094 100.808594 166.496094 98.53125 166.496094 96.273438 C 166.515625 95.375 165.890625 94.734375 164.996094 94.714844 Z M 147.75 131.894531 L 149.988281 131.894531 C 150.242188 131.894531 150.453125 132.109375 150.453125 132.363281 C 150.453125 132.617188 150.242188 132.828125 149.988281 132.828125 L 147.75 132.828125 L 147.75 134.835938 L 151.738281 134.835938 C 152.011719 134.835938 152.207031 135.046875 152.207031 135.300781 C 152.207031 135.554688 151.992188 135.769531 151.738281 135.769531 L 147.75 135.769531 L 147.75 137.773438 L 149.988281 137.773438 C 150.242188 137.773438 150.453125 137.988281 150.453125 138.242188 C 150.453125 138.496094 150.242188 138.707031 149.988281 138.707031 L 147.75 138.707031 L 147.75 140.714844 L 151.738281 140.714844 C 152.011719 140.714844 152.207031 140.925781 152.207031 141.179688 C 152.207031 141.433594 151.992188 141.648438 151.738281 141.648438 L 147.75 141.648438 L 147.75 143.652344 L 149.988281 143.652344 C 150.242188 143.652344 150.453125 143.867188 150.453125 144.121094 C 150.453125 144.375 150.242188 144.585938 149.988281 144.585938 L 147.75 144.585938 L 147.75 146.59375 L 151.738281 146.59375 C 152.011719 146.59375 152.207031 146.804688 152.207031 147.058594 C 152.207031 147.3125 151.992188 147.527344 151.738281 147.527344 L 147.75 147.527344 L 147.75 149.53125 L 149.988281 149.53125 C 150.242188 149.53125 150.453125 149.746094 150.453125 150 C 150.453125 150.25 150.242188 150.464844 149.988281 150.464844 L 147.75 150.464844 L 147.75 152.53125 L 151.738281 152.53125 C 152.011719 152.53125 152.207031 152.742188 152.207031 152.996094 C 152.207031 153.25 151.992188 153.464844 151.738281 153.464844 L 147.75 153.464844 L 147.75 155.46875 L 149.988281 155.46875 C 150.242188 155.46875 150.453125 155.683594 150.453125 155.9375 C 150.453125 156.1875 150.242188 156.402344 149.988281 156.402344 L 147.75 156.402344 L 147.75 158.425781 L 151.738281 158.425781 C 152.011719 158.425781 152.207031 158.640625 152.207031 158.894531 C 152.207031 159.148438 151.992188 159.363281 151.738281 159.363281 L 147.75 159.363281 L 147.75 161.367188 L 149.988281 161.367188 C 150.242188 161.367188 150.453125 161.582031 150.453125 161.835938 C 150.453125 162.085938 150.242188 162.300781 149.988281 162.300781 L 147.75 162.300781 L 147.75 164.324219 L 151.738281 164.324219 C 152.011719 164.324219 152.207031 164.539062 152.207031 164.792969 C 152.207031 165.046875 151.992188 165.261719 151.738281 165.261719 L 147.75 165.261719 L 147.75 167.285156 L 149.988281 167.285156 C 150.242188 167.285156 150.453125 167.5 150.453125 167.75 C 150.453125 168.003906 150.242188 168.21875 149.988281 168.21875 L 147.75 168.21875 L 147.75 170.242188 L 151.738281 170.242188 C 152.011719 170.242188 152.207031 170.457031 152.207031 170.710938 C 152.207031 170.964844 151.992188 171.179688 151.738281 171.179688 L 147.75 171.179688 L 147.75 173.164062 L 149.988281 173.164062 C 150.242188 173.164062 150.453125 173.378906 150.453125 173.628906 C 150.453125 173.882812 150.242188 174.097656 149.988281 174.097656 L 147.75 174.097656 L 147.75 175.792969 L 134.296875 175.792969 L 134.296875 183.226562 L 134.667969 183.226562 L 134.667969 180.988281 C 134.667969 180.714844 134.882812 180.523438 135.136719 180.523438 C 135.386719 180.523438 135.601562 180.734375 135.601562 180.988281 L 135.601562 183.226562 L 137.625 183.226562 L 137.625 179.238281 C 137.625 178.964844 137.839844 178.769531 138.09375 178.769531 C 138.347656 178.769531 138.5625 178.984375 138.5625 179.238281 L 138.5625 183.226562 L 140.566406 183.226562 L 140.566406 180.988281 C 140.566406 180.714844 140.78125 180.523438 141.03125 180.523438 C 141.285156 180.523438 141.5 180.734375 141.5 180.988281 L 141.5 183.226562 L 143.523438 183.226562 L 143.523438 179.238281 C 143.523438 178.964844 143.738281 178.769531 143.992188 178.769531 C 144.246094 178.769531 144.460938 178.984375 144.460938 179.238281 L 144.460938 183.226562 L 146.484375 183.226562 L 146.484375 180.988281 C 146.484375 180.714844 146.699219 180.523438 146.949219 180.523438 C 147.203125 180.523438 147.417969 180.734375 147.417969 180.988281 L 147.417969 183.226562 L 149.441406 183.226562 L 149.441406 179.238281 C 149.441406 178.964844 149.65625 178.769531 149.910156 178.769531 C 150.164062 178.769531 150.375 178.984375 150.375 179.238281 L 150.375 183.226562 L 152.402344 183.226562 L 152.402344 180.988281 C 152.402344 180.714844 152.617188 180.523438 152.867188 180.523438 C 153.121094 180.523438 153.335938 180.734375 153.335938 180.988281 L 153.335938 183.226562 L 155.242188 183.226562 L 155.242188 126.890625 L 147.808594 131.796875 L 147.808594 131.894531 Z M 147.75 131.894531 " fill-opacity="1" fill-rule="nonzero"/></g><path fill="#004aad" d="M 170.230469 143.515625 L 180.140625 143.515625 L 180.140625 153.425781 L 171.652344 153.425781 C 170.875 153.425781 170.230469 152.800781 170.230469 152.003906 Z M 181.542969 143.515625 L 181.542969 153.425781 L 190.027344 153.425781 C 190.808594 153.425781 191.449219 152.800781 191.449219 152.003906 L 191.449219 143.515625 Z M 170.230469 133.609375 L 170.230469 142.09375 L 180.140625 142.09375 L 180.140625 132.1875 L 171.652344 132.1875 C 170.855469 132.207031 170.230469 132.828125 170.230469 133.609375 Z M 190.027344 132.207031 L 181.542969 132.207031 L 181.542969 142.113281 L 191.449219 142.113281 L 191.449219 133.628906 C 191.449219 132.828125 190.828125 132.207031 190.027344 132.207031 Z M 190.027344 132.207031 " fill-opacity="1" fill-rule="nonzero"/><path fill="#0a3c80" d="M 159.511719 179.707031 C 161.675781 181.746094 163.925781 183.734375 166.117188 185.765625 C 167.445312 187.03125 168.863281 188.203125 170.160156 189.507812 C 172.589844 188.230469 174.9375 186.8125 177.367188 185.550781 C 176.5 183.421875 175.640625 181.296875 174.753906 179.175781 C 172.347656 173.21875 169.75 167.332031 167.375 161.355469 L 167.667969 161.734375 C 168.742188 163.652344 169.75 165.609375 170.824219 167.535156 C 171.339844 168.402344 171.71875 169.34375 172.289062 170.167969 C 174.964844 170.195312 177.652344 170.175781 180.328125 170.175781 C 180.933594 168.269531 181.472656 166.355469 182.09375 164.457031 C 183.195312 165.753906 184.957031 166.277344 186.617188 166.125 C 187.546875 166.046875 188.671875 165.949219 189.25 165.085938 C 189.667969 164.554688 189.578125 163.855469 189.523438 163.234375 C 189.472656 162.613281 189.675781 162.0625 189.898438 161.515625 C 190.5 160.191406 191.164062 158.878906 191.414062 157.433594 C 191.902344 157.390625 192.386719 157.363281 192.867188 157.242188 C 193.125 157.179688 193.300781 156.859375 193.175781 156.609375 C 192.796875 155.46875 191.792969 154.632812 191.511719 153.445312 C 191.394531 152.816406 191.644531 152.210938 191.785156 151.609375 C 192 150.765625 191.960938 149.898438 191.953125 149.039062 C 192.46875 149.242188 192.945312 149.542969 193.488281 149.675781 C 197.363281 149.648438 201.238281 149.660156 205.113281 149.625 C 201.742188 148.027344 198.410156 146.351562 195.023438 144.78125 C 194.863281 143.957031 194.808594 143.125 194.632812 142.308594 C 194.089844 139.339844 192.796875 136.472656 190.738281 134.25 C 189.1875 132.582031 187.300781 131.269531 185.199219 130.402344 C 182.148438 129.167969 178.777344 128.972656 175.605469 129.824219 C 172.421875 130.675781 169.574219 132.671875 167.625 135.304688 C 165.671875 137.9375 164.609375 141.429688 164.449219 144.800781 L 163.484375 144.914062 C 163.410156 145.667969 163.402344 146.414062 163.375 147.167969 L 166.25 148.417969 C 165.972656 150.511719 166.753906 152.523438 167.367188 154.484375 C 167.871094 156.148438 167.625 157.894531 167.648438 159.609375 C 165.363281 160.308594 163.136719 161.355469 161.347656 162.976562 C 160.34375 163.863281 159.554688 164.964844 158.792969 166.054688 C 158.941406 166.886719 158.917969 167.746094 158.976562 168.597656 C 159.210938 172.296875 159.226562 176.011719 159.511719 179.707031 Z M 190.324219 135.171875 C 191.429688 136.589844 192.308594 138.210938 192.664062 139.984375 C 192.9375 141.421875 193.089844 142.875 193.222656 144.320312 C 192.796875 144.214844 192.371094 144.089844 191.925781 144.027344 C 191.730469 143.445312 191.839844 142.804688 191.757812 142.191406 C 191.492188 139.144531 190.75 135.96875 188.707031 133.59375 C 189.363281 133.992188 189.84375 134.59375 190.324219 135.171875 Z M 166.726562 144.171875 C 168.5 142.582031 170.621094 141.351562 172.933594 140.730469 C 176.863281 139.65625 181.179688 140.429688 184.621094 142.53125 C 181.730469 142.140625 178.804688 141.9375 175.878906 142.085938 C 172.738281 142.28125 169.644531 142.984375 166.726562 144.171875 Z M 166.726562 144.171875 " fill-opacity="1" fill-rule="nonzero"/><path fill="#0a3c80" d="M 182.511719 194.558594 C 185.144531 192.035156 187.882812 189.628906 190.578125 187.183594 C 191.03125 186.765625 191.449219 186.304688 191.972656 185.976562 C 191.121094 183.65625 190.277344 181.332031 189.375 179.027344 C 188.1875 176.109375 187.191406 173.121094 185.898438 170.246094 C 185.585938 169.554688 185.207031 168.875 184.628906 168.375 C 183.894531 167.773438 183.175781 167.089844 182.246094 166.808594 C 181.871094 167.976562 181.492188 169.148438 181.128906 170.328125 C 181.589844 170.257812 182.050781 170.34375 182.519531 170.335938 C 182.503906 178.414062 182.503906 186.484375 182.511719 194.558594 Z M 182.511719 194.558594 " fill-opacity="1" fill-rule="nonzero"/><path fill="#0a3c80" d="M 195.890625 182.378906 C 195.695312 180.71875 196.121094 178.910156 195.261719 177.386719 C 194.730469 176.3125 193.726562 175.585938 192.691406 175.054688 L 187.910156 172.675781 C 189.375 177.039062 190.675781 181.457031 192.097656 185.828125 C 193.355469 184.675781 194.570312 183.46875 195.890625 182.378906 Z M 195.890625 182.378906 " fill-opacity="1" fill-rule="nonzero"/><path fill="#0a3c80" d="M 172.933594 171.417969 C 175.097656 176.277344 177.339844 181.109375 179.515625 185.96875 C 176.765625 187.429688 174.097656 189.0625 171.367188 190.550781 C 173.875 192.945312 176.515625 195.199219 179.042969 197.574219 C 179.355469 197.476562 179.550781 197.195312 179.769531 196.972656 C 180.382812 196.34375 181.109375 195.8125 181.695312 195.164062 C 181.675781 187.246094 181.660156 179.328125 181.695312 171.410156 Z M 172.933594 171.417969 " fill-opacity="1" fill-rule="nonzero"/><g clip-path="url(#bf4270d929)"><path fill="#0a3c80" d="M 223.855469 183.796875 C 221.488281 181.613281 219.203125 179.363281 216.878906 177.136719 C 216.710938 176.949219 216.453125 176.828125 216.363281 176.585938 C 216.363281 172.542969 216.382812 168.492188 216.371094 164.441406 C 215.476562 165.734375 214.5625 167.019531 213.660156 168.304688 C 213.429688 168.597656 213.457031 168.972656 213.484375 169.316406 C 206.425781 175.761719 199.375 182.210938 192.34375 188.65625 C 188 192.617188 183.601562 196.511719 179.273438 200.492188 C 177.304688 198.613281 175.25 196.832031 173.273438 194.960938 C 171.011719 192.875 168.707031 190.835938 166.460938 188.734375 C 161.894531 184.496094 157.277344 180.320312 152.683594 176.101562 C 150.386719 174.042969 148.167969 171.898438 145.828125 169.894531 C 145.667969 169.449219 145.863281 168.933594 145.667969 168.5 C 144.722656 167.152344 143.78125 165.796875 142.851562 164.441406 C 142.894531 168.5 142.832031 172.5625 142.886719 176.632812 C 140.402344 179.007812 137.910156 181.367188 135.445312 183.761719 C 134.621094 183.40625 133.894531 182.863281 133.097656 182.464844 C 130.425781 180.996094 127.75 179.511719 125.019531 178.140625 C 125.285156 178.449219 125.578125 178.734375 125.886719 179 C 128.148438 180.984375 130.367188 183.023438 132.652344 184.976562 C 146.351562 196.6875 160.035156 208.417969 173.6875 220.175781 C 175.613281 221.800781 177.484375 223.492188 179.441406 225.070312 C 181.058594 223.597656 182.785156 222.261719 184.433594 220.824219 C 195.953125 211.125 207.445312 201.398438 218.917969 191.652344 C 222.136719 188.886719 225.398438 186.179688 228.566406 183.363281 C 230.480469 181.632812 232.441406 179.957031 234.265625 178.128906 C 230.710938 179.867188 227.296875 181.855469 223.855469 183.796875 Z M 137.777344 185.675781 C 139.453125 184.035156 141.164062 182.414062 142.839844 180.765625 C 142.875 183.496094 142.8125 186.234375 142.859375 188.964844 C 141.128906 187.929688 139.515625 186.714844 137.777344 185.675781 Z M 146.21875 188.585938 C 146.183594 189.71875 146.273438 190.863281 146.175781 191.996094 L 145.765625 191.980469 C 145.730469 188.390625 145.820312 184.789062 145.777344 181.199219 C 148.355469 183.707031 151.058594 186.101562 153.660156 188.59375 C 151.175781 188.574219 148.691406 188.566406 146.21875 188.585938 Z M 213.5 191.996094 L 213.058594 191.980469 C 213.058594 190.84375 213.082031 189.710938 213.046875 188.574219 C 210.601562 188.609375 208.144531 188.53125 205.699219 188.628906 C 208.242188 186.09375 210.9375 183.707031 213.5 181.199219 C 213.554688 184.789062 213.542969 188.398438 213.5 191.996094 Z M 213.507812 177.394531 C 203.78125 186.164062 194.074219 194.949219 184.363281 203.753906 C 182.695312 205.28125 180.996094 206.769531 179.382812 208.355469 C 175.203125 204.402344 170.929688 200.5625 166.703125 196.671875 C 159.742188 190.261719 152.761719 183.859375 145.785156 177.472656 C 145.800781 175.921875 145.792969 174.371094 145.765625 172.820312 C 153.773438 180.207031 161.84375 187.546875 169.859375 194.925781 L 179.417969 203.667969 C 190.828125 193.355469 202.195312 183 213.519531 172.589844 C 213.5625 174.195312 213.589844 175.796875 213.507812 177.394531 Z M 216.355469 189.027344 C 216.445312 186.269531 216.390625 183.511719 216.398438 180.753906 C 218.109375 182.386719 219.832031 184.007812 221.523438 185.660156 C 219.742188 186.667969 218.074219 187.894531 216.355469 189.027344 Z M 216.355469 189.027344 " fill-opacity="1" fill-rule="nonzero"/></g><path fill="#0a3c80" d="M 152.523438 173.269531 C 154.835938 175.410156 157.144531 177.570312 159.457031 179.707031 C 159.191406 179.175781 159.289062 178.574219 159.246094 177.996094 C 158.96875 174.210938 158.667969 170.433594 158.367188 166.648438 C 157.703125 167.597656 157.144531 168.632812 156.355469 169.476562 C 154.828125 170.425781 153.039062 171.195312 152.117188 172.828125 C 152.203125 173.023438 152.390625 173.128906 152.523438 173.269531 Z M 152.523438 173.269531 " fill-opacity="1" fill-rule="nonzero"/></svg>